<?xml version="1.0" encoding="utf-8"?>
<svg xmlns:dc="http://purl.org/dc/elements/1.1/" xmlns:cc="http://creativecommons.org/ns#" xmlns:rdf="http://www.w3.org/1999/02/22-rdf-syntax-ns#" xmlns:svg="http://www.w3.org/2000/svg" xmlns="http://www.w3.org/2000/svg" version="1.1" x="0" y="0" viewBox="0 0 128 128" style="enable-background:new 0 0 128 128" xml:space="preserve"><metadata><rdf:RDF><cc:Work rdf:about=""><dc:format>image/svg+xml</dc:format><dc:type rdf:resource="http://purl.org/dc/dcmitype/StillImage"/><dc:title></dc:title></cc:Work></rdf:RDF></metadata><defs/><g style="fill-opacity:.3;fill:#fff"><g style="fill-opacity:.3;fill:#fff"><path d="M30.799 77.613c-.25.01-.502.045-.754.112-.852.194-1.762.754-2.274 1.468-.57.797-.852 1.807-1.554 2.506-.981.976-2.491 1.141-3.201 2.42-.492.885-.534 2.016-.065 2.92.521 1.003 1.487 1.386 2.56 1.453l1.444.092c.47.091.886.301 1.2.607l1.546 1.51c.972.95 2.428 1.187 3.73.842 1.315-.296 2.496-1.18 2.919-2.47l.673-2.055c.136-.416.408-.796.782-1.094l1.238-.748c.965-.583 1.654-1.428 1.594-2.612-.052-1.026-.66-1.991-1.545-2.507-.572-.332-1.174-.377-1.785-.389-.555-.011-1.118.004-1.672-.147-.935-.255-1.83-.895-2.68-1.353-.673-.364-1.406-.581-2.156-.555zm.67 1.078c.05 0 .09.041.09.092l-.004 1.61a.092.092 0 0 1-.184 0l.006-1.61c0-.05.04-.092.092-.092zm-1.188.002c.05-.012.1.018.112.067l.427 1.748a.092.092 0 0 1-.177.045l-.428-1.748a.092.092 0 0 1 .066-.112zm-.98.541a.088.088 0 0 1 .053.045l.748 1.424a.092.092 0 0 1-.038.123.094.094 0 0 1-.125-.039l-.748-1.424a.09.09 0 0 1 .04-.123.094.094 0 0 1 .07-.006zm9.295 1.602c.026.006.049.02.064.045a.105.105 0 0 1-.03.144l-1.616 1.041a.105.105 0 0 1-.145-.03.105.105 0 0 1 .031-.145l1.618-1.041a.103.103 0 0 1 .078-.014zm.627.824a.103.103 0 0 1 .132.063.105.105 0 0 1-.06.134l-2.03.749a.102.102 0 0 1-.132-.061.105.105 0 0 1 .06-.135zm-7.3.15c.277-.016.546-.006.802.028 1.086.144 1.937.72 2.146 1.57.306 1.25-.895 2.619-2.684 3.057-1.788.438-3.488-.219-3.794-1.469-.213-.868.303-1.793 1.236-2.424a4.503 4.503 0 0 1 1.45-.633c.286-.07.569-.112.845-.128zm7.429 1.102a.105.105 0 0 1 .027.207l-1.904.26a.105.105 0 0 1-.028-.207zm-15.373 1.5 1.914.176a.104.104 0 0 1 .093.113.104.104 0 0 1-.113.094l-1.914-.176a.104.104 0 0 1-.094-.113.104.104 0 0 1 .114-.094zm1.892.774a.104.104 0 0 1 .117.09.104.104 0 0 1-.09.117l-2.144.273a.104.104 0 1 1-.027-.207zm.127.79a.104.104 0 0 1 .135.063.107.107 0 0 1-.065.135l-1.806.65a.104.104 0 0 1-.07-.195zm7.441 2.012a.103.103 0 0 1 .061.053l.852 1.723a.102.102 0 0 1-.047.138.105.105 0 0 1-.14-.046l-.852-1.723a.105.105 0 0 1 .127-.145zm-.822.235a.105.105 0 0 1 .127.076l.514 2.1a.105.105 0 0 1-.076.126.103.103 0 0 1-.125-.076l-.516-2.1a.104.104 0 0 1 .076-.126zm-.765.14a.104.104 0 0 1 .105.102L32 90.387a.103.103 0 0 1-.102.105.103.103 0 0 1-.105-.101l-.043-1.922a.104.104 0 0 1 .102-.106z" style="fill-opacity:.3;fill:#fff"/></g><g style="fill-opacity:.3;fill:#fff"><path d="M13.756 53.678a3.25 3.25 0 0 0-.674.045c-.964.17-1.874.694-2.865.703-1.384.012-2.579-.923-3.98-.506-.972.289-1.79 1.067-2.087 2.04-.329 1.082.094 2.03.815 2.83l.967 1.073c.272.393.423.837.433 1.274l.05 2.162c.03 1.358.906 2.544 2.08 3.209 1.146.707 2.607.9 3.812.273l1.918-.998a2.344 2.344 0 0 1 1.324-.234l1.406.33c1.097.258 2.183.137 2.967-.752.68-.77.92-1.886.648-2.873-.175-.638-.576-1.091-1.004-1.527-.389-.396-.8-.779-1.091-1.274-.491-.836-.683-1.92-.97-2.842-.302-.975-.866-1.835-1.773-2.351a4.163 4.163 0 0 0-1.976-.582zm-7.108 1.086a.107.107 0 0 1 .073.037l1.244 1.465a.104.104 0 1 1-.158.134L6.56 54.936a.104.104 0 0 1 .011-.147.106.106 0 0 1 .076-.025zm7.444.011a.09.09 0 0 1 .06.114l-.46 1.54a.092.092 0 0 1-.116.061.09.09 0 0 1-.06-.113l.46-1.541a.094.094 0 0 1 .116-.06zm1.064.334a.09.09 0 0 1 .102.135l-.916 1.551a.09.09 0 0 1-.125.031.091.091 0 0 1-.033-.125l.916-1.549a.095.095 0 0 1 .056-.043zm-9.424.245a.1.1 0 0 1 .077.019l1.724 1.305c.046.035.057.1.022.146a.104.104 0 0 1-.147.02l-1.724-1.305a.102.102 0 0 1-.022-.144.108.108 0 0 1 .07-.041zm10.278.566c.023 0 .046.01.064.027a.09.09 0 0 1 0 .13l-1.127 1.148a.094.094 0 0 1-.13 0 .091.091 0 0 1 0-.13l1.126-1.148a.096.096 0 0 1 .067-.027zm-10.766.611a.1.1 0 0 1 .078.002l1.748.8a.104.104 0 0 1 .051.138.102.102 0 0 1-.137.05l-1.748-.798a.103.103 0 0 1-.05-.137.105.105 0 0 1 .058-.055zm5.996.848c.258-.012.53.006.807.057a4.52 4.52 0 0 1 1.478.56c.507.3.93.674 1.248 1.08.677.862.883 1.87.438 2.623-.655 1.108-2.47 1.246-4.057.309-1.586-.937-2.34-2.595-1.685-3.703.341-.577.997-.89 1.771-.926zm6.483 4.654 1.882.385a.105.105 0 0 1 .082.123.105.105 0 0 1-.123.08l-1.882-.385a.105.105 0 0 1-.082-.123.104.104 0 0 1 .123-.08zm-.235.574a.106.106 0 0 1 .08.002l1.975.881a.105.105 0 0 1-.086.191l-1.975-.88a.104.104 0 0 1 .006-.193zm-7.974.497a.104.104 0 0 1 .08.174l-1.315 1.404a.103.103 0 0 1-.146.004.104.104 0 0 1-.006-.147l1.314-1.402a.103.103 0 0 1 .073-.033zm7.629.207a.102.102 0 0 1 .076.02l1.543 1.146c.046.034.055.1.021.146a.106.106 0 0 1-.146.022l-1.543-1.147a.104.104 0 0 1-.022-.146.109.109 0 0 1 .07-.041zm-6.989.244a.101.101 0 0 1 .078.01c.05.028.067.092.038.142l-1.1 1.861a.104.104 0 1 1-.18-.105l1.1-1.861a.106.106 0 0 1 .064-.047zm.772.367a.103.103 0 0 1 .066.13l-.596 1.827a.103.103 0 0 1-.13.066.104.104 0 0 1-.069-.13l.598-1.827a.103.103 0 0 1 .13-.066z" style="fill-opacity:.3;fill:#fff"/></g><g style="fill-opacity:.3;fill:#fff"><path d="M68.992 89.324c-.253.014-.5.05-.734.114-1.04.28-1.987.94-3.072 1.044-1.514.145-2.914-.764-4.409-.173-1.036.409-1.859 1.34-2.09 2.435-.256 1.215.298 2.216 1.163 3.022l1.162 1.084c.336.405.542.873.595 1.351l.262 2.365c.164 1.485 1.237 2.7 2.584 3.315 1.324.665 2.941.737 4.201-.065l2.006-1.277c.406-.258.902-.39 1.428-.383l1.572.229c1.226.177 2.404-.06 3.178-1.108.67-.909.827-2.154.435-3.209-.253-.685-.734-1.142-1.244-1.578-.464-.396-.953-.775-1.318-1.289-.617-.869-.93-2.038-1.332-3.02-.425-1.038-1.122-1.929-2.166-2.408a4.585 4.585 0 0 0-2.22-.449zm.473 1.17c.054.011.089.065.078.12l-.36 1.732a.1.1 0 0 1-.119.078.101.101 0 0 1-.078-.12l.36-1.732a.101.101 0 0 1 .119-.078zm1.197.266a.099.099 0 0 1 .076.004c.05.024.071.084.047.134l-.853 1.784a.102.102 0 0 1-.135.047.099.099 0 0 1-.047-.133l.855-1.785a.098.098 0 0 1 .057-.051zm-9.351.433c.029 0 .06.012.082.034l1.503 1.484a.116.116 0 0 1 0 .162.114.114 0 0 1-.162 0l-1.504-1.482a.115.115 0 0 1 0-.162.113.113 0 0 1 .08-.036zm10.363.371a.095.095 0 0 1 .072.024c.042.036.049.1.014.142l-1.125 1.364a.1.1 0 0 1-.156-.127l1.126-1.365a.103.103 0 0 1 .069-.038zm-11.31.364a.112.112 0 0 1 .085.013l2.014 1.264c.054.034.07.105.035.158a.112.112 0 0 1-.156.035l-2.016-1.261a.115.115 0 0 1 .037-.21zm-.337 1.332 1.993.707a.115.115 0 1 1-.076.217l-1.993-.71a.114.114 0 0 1-.068-.146.112.112 0 0 1 .144-.068zm6.996.326c.149-.003.3.003.454.018.543.05 1.115.205 1.673.472.584.28 1.084.649 1.471 1.063.823.88 1.147 1.964.73 2.832-.61 1.276-2.587 1.601-4.413.726-1.827-.875-2.813-2.618-2.202-3.894.371-.776 1.248-1.2 2.287-1.217zm7.112 4.51 2.097.242a.115.115 0 0 1-.025.228l-2.1-.242a.115.115 0 0 1 .027-.229zm-.115.646 2.246.778c.06.02.093.086.072.146a.115.115 0 0 1-.147.07l-2.246-.777a.116.116 0 0 1-.072-.147.115.115 0 0 1 .147-.07zm-.4.81a.113.113 0 0 1 .085.014l1.8 1.108c.054.033.071.104.038.158a.116.116 0 0 1-.158.037l-1.8-1.107a.114.114 0 0 1 .034-.21zm-8.376.5a.107.107 0 0 1 .084.024.117.117 0 0 1 .02.162l-1.305 1.662a.114.114 0 0 1-.16.02.117.117 0 0 1-.02-.162l1.305-1.662a.113.113 0 0 1 .076-.043zm.746.434a.107.107 0 0 1 .086.004.117.117 0 0 1 .055.155l-1.027 2.142a.115.115 0 0 1-.208-.097l1.028-2.145a.116.116 0 0 1 .066-.059zm.88.328c.061.015.1.075.085.137l-.478 2.059a.114.114 0 0 1-.137.086.116.116 0 0 1-.086-.139l.476-2.057a.116.116 0 0 1 .14-.086z" style="fill-opacity:.3;fill:#fff"/></g><g style="fill-opacity:.3;fill:#fff"><path d="M105.324 37.178a3.71 3.71 0 0 0-1.527.394c-.833.388-1.644 1.165-2.012 2.014-.41.946-.477 2.049-1.045 2.924-.793 1.22-2.308 1.726-2.756 3.199-.31 1.02-.1 2.19.582 3.016.758.916 1.835 1.096 2.955.927l1.504-.224a2.46 2.46 0 0 1 1.368.357l1.927 1.211c1.21.761 2.759.681 4.022.037 1.286-.596 2.304-1.763 2.453-3.185l.236-2.264c.048-.458.244-.908.563-1.297l1.107-1.043c.863-.813 1.386-1.836 1.06-3.04-.28-1.045-1.122-1.903-2.146-2.237-.66-.217-1.289-.13-1.92-.006-.573.112-1.147.254-1.75.22-1.019-.054-2.081-.517-3.056-.8a4.841 4.841 0 0 0-1.565-.203zm.15 1.074a.097.097 0 0 1 .116.074l.351 1.656a.095.095 0 0 1-.074.114.095.095 0 0 1-.113-.075l-.354-1.656a.095.095 0 0 1 .075-.113zm-1.144.26a.094.094 0 0 1 .055.049l.828 1.703a.097.097 0 0 1-.174.084l-.828-1.703a.097.097 0 0 1 .12-.133zm8.951.363c.028 0 .055.012.076.033a.108.108 0 0 1 0 .154l-1.43 1.43a.11.11 0 0 1-.155 0 .108.108 0 0 1 0-.154l1.431-1.43a.112.112 0 0 1 .078-.033zm-9.916.414c.025.002.05.015.067.035l1.084 1.3a.097.097 0 0 1-.012.136.098.098 0 0 1-.137-.014l-1.084-1.299a.095.095 0 0 1 .012-.134.098.098 0 0 1 .07-.024zm10.826.283a.111.111 0 0 1 .069.05.109.109 0 0 1-.033.15l-1.92 1.22a.11.11 0 1 1-.118-.185l1.92-1.22a.11.11 0 0 1 .082-.015zm.329 1.274a.11.11 0 0 1 .14.066.11.11 0 0 1-.066.14l-1.903.688a.109.109 0 0 1-.138-.066.11.11 0 0 1 .066-.14zm-7.055.365c1.149-.094 2.154.309 2.556 1.137.592 1.218-.34 2.892-2.084 3.74-1.742.848-3.636.548-4.228-.67-.411-.845-.088-1.912.732-2.768a4.737 4.737 0 0 1 1.352-.97 4.731 4.731 0 0 1 1.672-.47zm-6.418 4.342a.11.11 0 0 1 .123.095.112.112 0 0 1-.098.123l-2.006.243a.11.11 0 0 1-.123-.096.109.109 0 0 1 .096-.121zm.113.619a.11.11 0 0 1 .14.066.111.111 0 0 1-.068.14l-2.144.757a.11.11 0 0 1-.14-.067.111.111 0 0 1 .068-.14zm.389.771a.11.11 0 0 1 .033.2l-1.715 1.072a.11.11 0 0 1-.15-.035.112.112 0 0 1 .035-.153l1.715-1.07a.108.108 0 0 1 .082-.014zm8.015.434a.113.113 0 0 1 .075.041L110.896 49a.11.11 0 0 1-.017.154.111.111 0 0 1-.154-.017l-1.258-1.584a.11.11 0 0 1 .017-.155.108.108 0 0 1 .08-.021zm-.709.418a.11.11 0 0 1 .063.055l.994 2.046a.11.11 0 0 1-.05.147.11.11 0 0 1-.147-.05l-.994-2.048a.109.109 0 0 1 .134-.15zm-.841.318a.11.11 0 0 1 .132.08l.47 1.967a.11.11 0 0 1-.083.133.108.108 0 0 1-.13-.08l-.47-1.969a.108.108 0 0 1 .08-.13z" style="fill-opacity:.3;fill:#fff"/></g><g style="fill-opacity:.3;fill:#fff"><path d="M90.914 17.617a2.736 2.736 0 0 0-1.018.11c-.696.225-1.314.706-2.046.814-1.022.151-2.002-.419-2.996.033-.688.313-1.215.974-1.334 1.725-.132.833.275 1.492.89 2.01l.826.695c.242.263.4.573.451.896l.258 1.594c.162 1.001.933 1.788 1.868 2.16.92.406 2.02.402 2.847-.185l1.317-.938c.267-.189.598-.295.955-.308l1.076.1c.838.077 1.626-.122 2.115-.86.424-.64.488-1.49.186-2.193-.197-.454-.54-.747-.9-1.026-.329-.253-.673-.494-.938-.83-.45-.568-.7-1.35-1.006-2.002-.324-.69-.829-1.27-1.553-1.558a3.042 3.042 0 0 0-.998-.237zm-.166.785a.07.07 0 0 1 .059.078l-.184 1.188a.067.067 0 0 1-.078.057.068.068 0 0 1-.057-.079l.184-1.185c.006-.037.039-.065.076-.059zm.875.139a.07.07 0 0 1 .037.09l-.517 1.24a.07.07 0 0 1-.09.037.069.069 0 0 1-.037-.09l.517-1.24a.069.069 0 0 1 .09-.037zm.713.525c.03.023.037.066.014.096l-.717.965a.067.067 0 0 1-.096.014.068.068 0 0 1-.014-.096l.717-.965a.07.07 0 0 1 .096-.014zm-7.037.112 1.07.955a.076.076 0 0 1 .008.11.08.08 0 0 1-.111.005l-1.07-.955a.077.077 0 0 1-.007-.11.077.077 0 0 1 .11-.005zm-.613.515 1.408.79c.038.02.05.068.03.105a.077.077 0 0 1-.106.03l-1.409-.788a.077.077 0 0 1-.03-.105.08.08 0 0 1 .107-.032zm4.824.887c.37.015.764.103 1.152.266.406.17.756.402 1.033.67.587.567.844 1.291.592 1.894-.37.886-1.7 1.176-2.969.645-1.269-.531-1.998-1.68-1.627-2.567.257-.615.978-.944 1.819-.908zm-5.067.022 1.375.412a.08.08 0 0 1 .053.097.078.078 0 0 1-.098.051l-1.375-.41a.078.078 0 0 1-.05-.098.077.077 0 0 1 .095-.052zm9.737 2.796 1.431.092a.077.077 0 0 1 .073.082.078.078 0 0 1-.082.074l-1.432-.091a.079.079 0 0 1-.074-.084.079.079 0 0 1 .084-.073zm-.057.444 1.55.451a.077.077 0 1 1-.043.148l-1.55-.45a.077.077 0 1 1 .043-.148zm-.185.568 1.257.69a.077.077 0 0 1 .032.105.077.077 0 0 1-.106.031l-1.258-.69a.079.079 0 0 1-.031-.105.077.077 0 0 1 .106-.03zm-5.665.635a.076.076 0 0 1 .02.107l-.828 1.172a.077.077 0 0 1-.108.02.078.078 0 0 1-.02-.11l.829-1.171a.076.076 0 0 1 .107-.018zm.524.256c.04.017.058.061.04.101l-.622 1.489a.077.077 0 0 1-.102.043.08.08 0 0 1-.043-.104l.623-1.488a.079.079 0 0 1 .104-.041zm.547.191c.042.007.07.048.062.09l-.254 1.412a.078.078 0 0 1-.09.065.077.077 0 0 1-.062-.09l.254-1.414a.078.078 0 0 1 .09-.063z" style="fill-opacity:.3;fill:#fff"/></g><g style="fill-opacity:.3;fill:#fff"><path d="M34.402 24.676c-.743-.018-1.48.186-2.076.656l-1.517 1.197c-.307.242-.696.39-1.122.426l-1.29-.055c-1.007-.043-1.937.246-2.477 1.157-.468.789-.493 1.808-.09 2.629.262.53.689.86 1.137 1.171.408.282.833.55 1.17.936.57.652.92 1.572 1.324 2.332.429.805 1.065 1.467 1.947 1.768.73.277 1.682.31 2.416.03.818-.31 1.528-.924 2.397-1.097 1.212-.24 2.417.382 3.578-.219.804-.416 1.393-1.236 1.49-2.14.108-1.003-.42-1.767-1.185-2.348l-1.03-.78c-.305-.3-.51-.662-.592-1.044l-.406-1.89c-.254-1.188-1.218-2.08-2.357-2.468a3.975 3.975 0 0 0-1.317-.261zm-.142 1.05a.092.092 0 0 1 .08.104l-.219 1.703a.093.093 0 0 1-.103.08.092.092 0 0 1-.08-.103l.216-1.703a.093.093 0 0 1 .106-.08zm1.142.092a.092.092 0 0 1 .055.12l-.654 1.816a.094.094 0 0 1-.12.057.093.093 0 0 1-.054-.12l.654-1.818a.093.093 0 0 1 .12-.055zm.87.647a.092.092 0 0 1 .098.14l-.919 1.45a.094.094 0 0 1-.129.029.092.092 0 0 1-.027-.129l.918-1.45a.092.092 0 0 1 .058-.04zm-9.213 1.795a.094.094 0 0 1 .072.006l1.545.748a.094.094 0 0 1 .043.125.094.094 0 0 1-.125.043l-1.545-.75a.091.091 0 0 1-.043-.123.095.095 0 0 1 .053-.05zm5.931.83c.371.022.76.1 1.147.24 1.548.558 2.485 1.887 2.095 2.969-.27.75-1.11 1.185-2.117 1.193a4.006 4.006 0 0 1-1.39-.246 4.019 4.019 0 0 1-1.276-.738c-.738-.643-1.087-1.495-.822-2.23.292-.811 1.25-1.253 2.363-1.188zm-6.42.156 1.88.445c.05.012.08.064.068.114a.092.092 0 0 1-.112.068l-1.879-.445a.093.093 0 0 1-.07-.112.095.095 0 0 1 .113-.07zm.082.95 1.717.023c.052 0 .093.043.092.094a.091.091 0 0 1-.094.091l-1.717-.023a.092.092 0 0 1-.091-.094c0-.052.042-.093.093-.092zm11.893 2.374 1.666.41c.05.013.08.064.068.114a.093.093 0 0 1-.113.066l-1.668-.408a.092.092 0 0 1-.066-.113.094.094 0 0 1 .113-.069zm-.332.662a.09.09 0 0 1 .07.004l1.733.858a.093.093 0 1 1-.084.166l-1.73-.856a.095.095 0 0 1-.044-.125.095.095 0 0 1 .055-.047zm-.272.442a.093.093 0 0 1 .069.02l1.336 1.077a.093.093 0 0 1-.117.145l-1.336-1.076a.096.096 0 0 1-.014-.133.091.091 0 0 1 .062-.033zm-6.222.465a.084.084 0 0 1 .023.115l-.799 1.193a.084.084 0 0 1-.115.024.081.081 0 0 1-.021-.114l.798-1.195a.081.081 0 0 1 .114-.023zm.593.25a.083.083 0 0 1 .05.105l-.546 1.512a.08.08 0 0 1-.103.049.085.085 0 0 1-.05-.106l.544-1.512a.083.083 0 0 1 .106-.048zm.618.187a.081.081 0 0 1 .072.09l-.148 1.43a.083.083 0 0 1-.09.074.083.083 0 0 1-.073-.092l.149-1.43a.081.081 0 0 1 .09-.072z" style="fill-opacity:.3;fill:#fff"/></g><g style="fill-opacity:.3;fill:#fff"><path d="M59.57 124.617a5.538 5.538 0 0 0-1.238.074c-1.646.223-3.19 1.18-3.848 2.72l-.252.589h3.256l-.476-1.223a.13.13 0 0 1 .074-.168.13.13 0 0 1 .166.075l.512 1.316h.95l-.29-1.887a.126.126 0 0 1 .105-.144.128.128 0 0 1 .149.105l.297 1.926h.877l.115-1.734a.13.13 0 0 1 .137-.121.127.127 0 0 1 .117.136L60.109 128h4.327l-1.616-1.877c-.818-.952-2.013-1.44-3.25-1.506z" style="fill-opacity:.3;fill:#fff"/></g><g style="fill-opacity:.3;fill:#fff"><path d="M32.158 109.416a3.51 3.51 0 0 0-.728.049c-1.042.187-2.022.754-3.094.765-1.495.016-2.789-.993-4.303-.539-1.049.314-1.934 1.157-2.252 2.211-.353 1.17.105 2.193.885 3.055l1.049 1.16c.295.425.457.9.469 1.373l.058 2.338c.036 1.468.984 2.746 2.252 3.461 1.241.762 2.818.971 4.12.291l2.072-1.084a2.54 2.54 0 0 1 1.43-.256l1.52.356c1.187.276 2.358.142 3.204-.82.733-.835.99-2.04.695-3.106-.19-.69-.622-1.179-1.086-1.649-.42-.427-.868-.839-1.183-1.373-.532-.903-.74-2.074-1.051-3.068-.33-1.053-.94-1.981-1.92-2.537a4.509 4.509 0 0 0-2.137-.627zm-7.678 1.186a.11.11 0 0 1 .077.039l1.347 1.58a.113.113 0 0 1-.013.16.113.113 0 0 1-.159-.014l-1.347-1.58a.112.112 0 0 1 .095-.185zm8.041 0a.098.098 0 0 1 .067.123l-.494 1.666a.102.102 0 0 1-.125.066.098.098 0 0 1-.067-.123l.496-1.666a.098.098 0 0 1 .123-.066zm1.153.359a.097.097 0 0 1 .074.01.1.1 0 0 1 .035.137l-.986 1.673a.1.1 0 0 1-.137.036.098.098 0 0 1-.033-.135l.986-1.676a.098.098 0 0 1 .06-.045zm-10.184.281a.115.115 0 0 1 .084.022l1.865 1.406c.05.037.06.106.024.156a.114.114 0 0 1-.158.024l-1.867-1.407a.113.113 0 0 1-.022-.158.113.113 0 0 1 .074-.043zm11.106.592a.1.1 0 0 1 .072.17l-1.217 1.24a.1.1 0 0 1-.14.002.1.1 0 0 1 0-.14l1.216-1.243a.094.094 0 0 1 .069-.029zm-11.631.68a.112.112 0 0 1 .086.004l1.89.859a.113.113 0 0 1-.093.205l-1.891-.86a.114.114 0 0 1-.057-.15.115.115 0 0 1 .065-.058zm6.48.904c.28-.013.572.007.871.06a4.873 4.873 0 0 1 1.6.604 4.851 4.851 0 0 1 1.352 1.164c.732.93.956 2.02.476 2.834-.706 1.198-2.669 1.352-4.385.342-1.715-1.01-2.534-2.8-1.828-3.998.368-.624 1.078-.966 1.914-1.006zm7.014 5.018 2.035.414c.061.013.1.071.088.132a.113.113 0 0 1-.133.088l-2.035-.414a.113.113 0 0 1 .045-.22zm-.252.623a.113.113 0 0 1 .086.002l2.135.949a.113.113 0 0 1-.092.207l-2.135-.951a.112.112 0 0 1 .006-.207zm-8.617.548a.112.112 0 0 1 .08.032.111.111 0 0 1 .006.158l-1.418 1.517a.111.111 0 0 1-.158.006.112.112 0 0 1-.006-.158l1.418-1.517a.113.113 0 0 1 .078-.037zm8.242.213a.113.113 0 0 1 .084.02l1.67 1.236c.05.037.06.108.023.158a.114.114 0 0 1-.158.024l-1.67-1.237a.114.114 0 0 1-.023-.158.113.113 0 0 1 .074-.043zm-7.549.274a.112.112 0 0 1 .123.166l-1.183 2.013a.112.112 0 0 1-.155.04.113.113 0 0 1-.04-.155l1.187-2.011a.115.115 0 0 1 .068-.053zm.832.396a.114.114 0 0 1 .073.143l-.64 1.974a.114.114 0 0 1-.142.073.114.114 0 0 1-.072-.143l.64-1.974a.111.111 0 0 1 .141-.073z" style="fill-opacity:.3;fill:#fff"/></g><g style="fill-opacity:.3;fill:#fff"><path d="M128 16.314c-.85.244-1.717.804-2.227 1.506-.625.855-.938 1.944-1.703 2.696-1.067 1.046-2.7 1.212-3.478 2.588-.54.954-.593 2.174-.094 3.152.552 1.089 1.595 1.514 2.756 1.596l1.557.109c.507.104.956.332 1.29.664l1.66 1.648c.078.075.157.147.24.213v-4.841c-.827-.277-1.434-.822-1.606-1.55-.223-.938.34-1.935 1.353-2.609a3.636 3.636 0 0 1 .252-.154v-1.967l-.693-1.347a.094.094 0 0 1 .043-.133.096.096 0 0 1 .133.04l.517 1.009zm-6.371 7.114 2.066.207a.113.113 0 0 1 .102.123.111.111 0 0 1-.123.1l-2.069-.206a.111.111 0 0 1-.1-.123.113.113 0 0 1 .124-.101zm2.04.85a.113.113 0 0 1 .025.225l-2.317.276a.11.11 0 0 1-.125-.097.112.112 0 0 1 .098-.125zm.132.857a.11.11 0 0 1 .142.068.113.113 0 0 1-.068.145l-1.959.687a.113.113 0 0 1-.145-.068.114.114 0 0 1 .07-.145z" style="fill-opacity:.3;fill:#fff"/></g><g style="fill-opacity:.3;fill:#fff"><path d="M67.652 39.154a2.734 2.734 0 0 0-.564.045c-1.091.201-2.165.957-2.748 1.987-.647 1.143-.475 2.231.049 3.191l.703 1.291c.172.463.205.961.092 1.441l-.559 2.373c-.351 1.49.226 2.89 1.258 3.756.994.91 2.457 1.297 3.887.754l2.279-.863c.46-.175.96-.208 1.441-.098l1.371.53c1.07.413 2.232.408 3.3-.471.924-.762 1.49-1.955 1.485-3.067-.002-.72-.29-1.262-.613-1.789-.293-.479-.614-.945-.777-1.521-.274-.973-.167-2.183-.205-3.225-.04-1.102-.383-2.112-1.182-2.785-.646-.588-1.661-.97-2.605-.904-1.052.072-2.144.538-3.178.43-1.263-.133-2.17-1.044-3.434-1.075zm-.375 1.018a.093.093 0 0 1 .065.049l.88 1.75c.028.052.004.122-.052.158-.057.036-.124.023-.15-.03l-.881-1.75c-.026-.051-.004-.124.052-.16a.116.116 0 0 1 .086-.017zm-1.12.535c.028 0 .056.01.075.031l1.426 1.631c.038.044.03.116-.02.162-.048.046-.12.05-.158.006l-1.425-1.633c-.038-.043-.03-.116.02-.162a.125.125 0 0 1 .081-.035zm8.786.361a.092.092 0 0 1 .075.002c.046.021.06.08.03.131l-.913 1.631c-.03.052-.09.077-.137.055-.047-.021-.06-.08-.031-.131l.914-1.633a.125.125 0 0 1 .062-.055zm1.088.496a.083.083 0 0 1 .069.018c.038.033.037.098-.002.143l-1.391 1.584c-.039.044-.1.052-.139.02-.038-.034-.037-.096.002-.141l1.39-1.584a.117.117 0 0 1 .071-.04zm-10.715.373a.102.102 0 0 1 .082.012l1.594 1.082c.048.032.055.103.016.158-.04.055-.11.072-.158.04l-1.594-1.083c-.048-.032-.056-.1-.016-.156a.134.134 0 0 1 .076-.052zm11.371.616a.082.082 0 0 1 .061.037c.028.043.012.105-.035.14l-1.496 1.122c-.047.035-.109.029-.137-.014-.028-.043-.012-.108.035-.143l1.498-1.12a.106.106 0 0 1 .075-.022zm-5.775 1.025c.398-.027.816.026 1.227.158.483.155.957.42 1.38.791.444.39.778.848.995 1.33.46 1.023.39 2.15-.285 2.92-.994 1.134-2.924 1.07-4.31-.144-1.384-1.214-1.701-3.12-.708-4.252.431-.492 1.039-.758 1.701-.803zm5.834 5.863 1.852.647c.056.019.076.084.048.144-.028.06-.095.094-.15.075l-1.85-.647c-.056-.019-.078-.084-.05-.144.028-.06.095-.094.15-.075zm-8.842.192a.1.1 0 0 1 .073.04c.032.049.015.122-.038.163l-1.763 1.377c-.053.042-.122.036-.155-.012s-.017-.12.036-.162l1.761-1.379a.127.127 0 0 1 .086-.027zm8.436.408a.106.106 0 0 1 .084.014l1.803 1.2c.048.033.054.102.015.157-.039.055-.108.073-.156.041l-1.805-1.201c-.048-.032-.054-.101-.015-.156a.135.135 0 0 1 .074-.055zm-7.897.164a.098.098 0 0 1 .08.022c.043.037.042.109-.002.16l-1.67 1.906c-.044.051-.117.06-.16.021-.043-.038-.042-.109.002-.16l1.67-1.906a.128.128 0 0 1 .08-.043zm.614.49a.107.107 0 0 1 .086.002c.05.026.067.095.033.153l-1.137 1.927c-.034.057-.104.085-.156.059-.052-.026-.065-.094-.031-.152l1.134-1.928a.137.137 0 0 1 .07-.06zm6.722.076a.096.096 0 0 1 .076.032l1.282 1.437c.038.043.03.115-.02.162-.049.046-.12.05-.158.006l-1.281-1.437c-.038-.044-.03-.116.02-.162a.129.129 0 0 1 .081-.037z" style="fill-opacity:.3;fill:#fff"/></g><g style="fill-opacity:.3;fill:#fff"><path d="M95.133 70.314a2.89 2.89 0 0 0-1.389.268c-.753.322-1.473 1.04-1.785 1.87-.347.924-.376 2.037-.871 2.876-.691 1.171-2.066 1.554-2.432 3.01-.254 1.009-.028 2.215.623 3.113.723.996 1.719 1.274 2.74 1.201l1.376-.097c.462.033.9.2 1.265.482l1.805 1.399c1.134.878 2.551.931 3.691.388 1.162-.493 2.062-1.59 2.156-3.021l.15-2.28c.03-.46.196-.9.477-1.267l.985-.963c.767-.751 1.216-1.744.88-2.996-.29-1.084-1.086-2.03-2.036-2.46-.614-.276-1.187-.241-1.762-.171-.523.064-1.048.155-1.602.07-.936-.145-1.926-.705-2.828-1.078a4.342 4.342 0 0 0-1.443-.344zm.172 1.106c.047-.007.093.03.105.084l.373 1.713c.011.054-.017.102-.064.11-.047.006-.096-.033-.108-.087l-.373-1.71c-.01-.055.019-.103.067-.11zm-1.112.16c.044-.019.096.006.12.057l.81 1.8c.022.051.008.11-.035.127-.044.02-.098-.005-.121-.056l-.81-1.801c-.024-.051-.007-.107.036-.127zm-.795.71a.1.1 0 0 1 .063.038l1.033 1.414c.033.045.031.108-.006.139-.036.03-.092.018-.125-.026l-1.035-1.414c-.033-.045-.028-.105.008-.136a.072.072 0 0 1 .062-.016zm9.086.444a.111.111 0 0 1 .073.04c.04.047.044.118.006.158l-1.27 1.326c-.038.039-.101.032-.142-.016-.041-.047-.044-.116-.006-.156l1.27-1.326a.085.085 0 0 1 .07-.026zm.858.787a.118.118 0 0 1 .064.055c.032.055.02.122-.025.15l-1.727 1.073c-.045.028-.106.007-.138-.047-.032-.055-.021-.124.025-.152l1.725-1.073a.09.09 0 0 1 .076-.006zm-6.123 1.075c1.052.005 1.986.503 2.38 1.379.58 1.288-.224 2.908-1.798 3.617-1.574.709-3.323.239-3.903-1.049-.403-.895-.137-1.948.59-2.746.32-.351.73-.654 1.211-.871a3.656 3.656 0 0 1 1.52-.33zm6.463.246c.052-.016.11.018.13.078.022.06-.002.12-.054.137l-1.725.533c-.052.016-.11-.018-.13-.078-.022-.06.002-.123.054-.139zM91.46 78.447c.055-.002.104.046.113.108.01.062-.029.115-.084.117l-1.834.07c-.055.002-.106-.045-.115-.107-.009-.062.029-.113.084-.115zm.121.639c.052-.016.11.018.13.078.02.06-.006.12-.058.137l-1.945.582c-.051.016-.11-.02-.13-.08-.02-.06.006-.119.058-.135zm.38.818a.123.123 0 0 1 .065.055c.031.055.019.122-.027.15l-1.543.938c-.047.028-.108.006-.139-.049-.03-.055-.018-.122.028-.15l1.54-.938a.09.09 0 0 1 .077-.006zm7.37 1.137c.026.006.05.023.068.049l1.204 1.717c.036.05.03.122-.012.156-.042.034-.107.02-.143-.031l-1.203-1.72c-.036-.051-.03-.12.014-.153a.084.084 0 0 1 .072-.018zm-.717.361c.05-.022.111.007.137.065l.975 2.164c.026.057.008.122-.041.144-.05.022-.111-.006-.137-.064l-.975-2.164c-.026-.058-.008-.123.041-.145zm-.683.254c.054-.009.11.033.125.094l.49 2.04c.014.06-.018.117-.072.126-.054.009-.108-.033-.123-.094l-.49-2.039c-.016-.06.016-.118.07-.127z" style="fill-opacity:.3;fill:#fff"/></g><g style="fill-opacity:.3;fill:#fff"><path d="M95.924 116.299a3.232 3.232 0 0 0-.69.078c-.994.229-1.97.84-2.974.893-1.405.072-2.519-.898-3.983-.383-1.017.358-1.927 1.243-2.328 2.316-.446 1.192-.118 2.206.53 3.045l.867 1.13c.233.418.34.892.304 1.368l-.173 2.354c-.023.31-.007.611.043.898h1.912l1.129-1.209c.044-.048.111-.053.148-.012.038.041.033.113-.012.16l-.988 1.061h1l.46-.73c.035-.055.1-.075.147-.045.047.03.059.098.024.154l-.393.621h.76l.135-.34c.024-.06.085-.095.138-.078.055.017.08.08.055.14l-.11.278h7.757l-1.403-1.146c-.042-.035-.046-.106-.006-.157.04-.053.108-.066.15-.029l1.444 1.182c.04.034.045.1.008.15h1.477c.508-.802.723-1.78.582-2.652-.112-.688-.472-1.164-.86-1.621-.353-.415-.732-.81-.974-1.338-.41-.89-.488-2.062-.682-3.055-.204-1.046-.687-1.963-1.553-2.486-.53-.349-1.24-.553-1.941-.547zm-3.998 11.699h-.219V128h.219zm-.979 0h-.238l-.002.002h.238zm-1.238 0h-.277l-.002.002h.277zm6.44-10.52c.046.015.07.07.05.124l-.629 1.699c-.02.053-.075.083-.123.07-.047-.014-.069-.068-.049-.121l.63-1.7c.02-.052.072-.086.12-.072zm-7.544.311a.088.088 0 0 1 .069.037l1.11 1.541c.032.046.02.117-.028.16-.05.042-.116.04-.149-.006l-1.109-1.54c-.034-.047-.02-.12.027-.163a.115.115 0 0 1 .08-.03zm8.586.01a.087.087 0 0 1 .07.008c.043.026.051.086.02.135l-1.09 1.726c-.03.048-.088.066-.13.041-.042-.026-.053-.085-.022-.134l1.092-1.727a.112.112 0 0 1 .06-.049zm-9.576.672a.093.093 0 0 1 .076.02l1.612 1.345c.043.036.046.107.006.158-.04.051-.108.064-.15.028l-1.612-1.346c-.043-.036-.046-.106-.006-.158a.126.126 0 0 1 .074-.047zm10.358.174a.077.077 0 0 1 .062.025c.033.037.028.1-.012.14l-1.263 1.3c-.04.04-.098.044-.131.008-.032-.037-.028-.1.012-.141l1.263-1.299a.104.104 0 0 1 .069-.033zm-10.977 1.13a.096.096 0 0 1 .08 0l1.69.794c.05.024.067.092.037.15-.03.058-.094.084-.145.06l-1.687-.794c-.051-.023-.07-.089-.04-.147a.132.132 0 0 1 .065-.062zm6.39.653c.136.005.275.018.413.04.486.074.977.255 1.44.546a3.79 3.79 0 0 1 1.152 1.121c.594.91.698 2 .168 2.84-.78 1.235-2.636 1.464-4.145.512-1.509-.953-2.1-2.726-1.32-3.961.473-.751 1.344-1.13 2.293-1.098zm5.684 4.8 1.868.339c.055.01.088.069.07.13-.017.062-.079.104-.135.094l-1.867-.338c-.056-.01-.087-.069-.069-.13.017-.063.077-.104.133-.094zm-.299.636a.098.098 0 0 1 .08 0l1.909.875c.05.024.068.09.039.148-.03.058-.094.085-.145.062l-1.908-.875c-.05-.023-.068-.089-.039-.148a.133.133 0 0 1 .065-.062z" style="fill-opacity:.3;fill:#fff"/></g><g style="fill-opacity:.3;fill:#fff"><g style="fill-opacity:.3;fill:#fff"><path d="m54.234 0-.795 1.861a2.902 2.902 0 0 1-1.078 1.258l-1.6.785c-1.246.613-2.185 1.577-2.238 3.037-.045 1.266.598 2.516 1.63 3.245.666.47 1.4.59 2.148.67.68.072 1.373.114 2.037.359 1.12.413 2.15 1.298 3.142 1.951 1.051.691 2.26 1.073 3.53.855 1.067-.147 2.24-.735 2.945-1.558.784-.916 1.242-2.126 2.18-2.91 1.309-1.093 3.18-1.135 4.19-2.63.697-1.033.869-2.416.39-3.575-.531-1.288-1.675-1.865-2.986-2.063l-1.762-.265A2.883 2.883 0 0 1 64.56.145L64.436 0h-4.327v.002l-.043.644a.127.127 0 0 1-.134.12.129.129 0 0 1-.121-.137L59.85 0zm3.254.002h.276l.347.89a.128.128 0 0 1-.072.167.13.13 0 0 1-.168-.075zm1.225 0h.26l.109.709a.128.128 0 0 1-.105.146.132.132 0 0 1-.149-.107zm1.432 2.99c1.892-.02 3.46.907 3.671 2.28.168 1.087-.562 2.168-1.775 2.843a5.558 5.558 0 0 1-1.848.623 5.525 5.525 0 0 1-2.033-.052c-1.32-.294-2.305-1.095-2.469-2.16-.242-1.568 1.382-3.12 3.625-3.465.28-.044.558-.066.829-.069zm8.939.479a.127.127 0 0 1 .156.092.126.126 0 0 1-.09.156l-2.29.605a.128.128 0 0 1-.065-.248zm.498 1.476a.13.13 0 0 1 .135.123.128.128 0 0 1-.123.133l-2.662.106a.128.128 0 0 1-.01-.256zm-2.693.84 2.33.42c.07.012.116.08.103.15a.127.127 0 0 1-.148.104l-2.33-.422a.13.13 0 0 1-.106-.148.129.129 0 0 1 .15-.104zm-14.397.496a.13.13 0 0 1 .135.123.128.128 0 0 1-.123.133l-2.365.113a.128.128 0 0 1-.135-.12.13.13 0 0 1 .123-.136zm.174.97a.129.129 0 0 1 .068.248l-2.57.702a.129.129 0 0 1-.068-.248zm.35.683a.13.13 0 0 1 .076.062.129.129 0 0 1-.055.174l-2.094 1.105a.129.129 0 0 1-.173-.054.128.128 0 0 1 .052-.174l2.096-1.106a.127.127 0 0 1 .098-.007zm8.302 2.275a.113.113 0 0 1 .149.06l.763 1.83a.11.11 0 0 1-.06.147.114.114 0 0 1-.149-.06l-.763-1.829a.114.114 0 0 1 .06-.148zm-.87.182c.061-.01.12.031.128.093l.338 2.192a.111.111 0 0 1-.094.129.112.112 0 0 1-.129-.094l-.337-2.192a.113.113 0 0 1 .093-.128zm-.884.09a.113.113 0 0 1 .102.122l-.178 1.975a.113.113 0 0 1-.224-.021l.177-1.975a.112.112 0 0 1 .123-.102z" style="fill-opacity:.3;fill:#fff"/></g><g style="fill-opacity:.3;fill:#fff"><path d="M87.518.002a3.646 3.646 0 0 0 1.728 2.504c1.09.72 2.549.87 3.836.135l2.049-1.172c.415-.237.89-.347 1.367-.315l1.393.3c1.085.232 2.196.055 3.084-.948.139-.157.265-.326.377-.504h-9.426l-.686 1.736c-.024.06-.087.095-.14.078-.054-.018-.077-.08-.053-.14l.66-1.674h-.762l-.916 1.451c-.034.055-.1.074-.148.045-.047-.03-.056-.097-.022-.152l.848-1.344h-1l-.486.521c-.044.048-.112.052-.15.01-.038-.04-.035-.112.01-.158l.349-.373z" style="fill-opacity:.3;fill:#fff"/><path class="st0" d="m99.875.001-.003.004c-.04.052-.107.066-.15.03L99.68.001z" style="fill-opacity:.3;fill:#fff"/></g></g><g style="fill-opacity:.3;fill:#fff"><path d="M121.416 91.96c-.9.05-1.741.414-2.396.995-1.087.882-1.71 2.33-1.372 3.883l.541 2.473a2.6 2.6 0 0 1-.119 1.498l-.754 1.328c-.587 1.036-.76 2.23-.02 3.46.643 1.067 1.782 1.829 2.925 1.995.74.107 1.342-.107 1.933-.358.538-.228 1.067-.488 1.684-.566 1.043-.135 2.268.16 3.344.28.277.03.55.041.818.03v-1.59l-.76-1.408c-.029-.053-.014-.114.035-.136.048-.022.111.003.141.056l.584 1.082v-1.294l-.125-.147c-.04-.047-.04-.112 0-.146.034-.03.086-.027.125.004v-2.973a3.532 3.532 0 0 1-.275.603c-.227.4-.535.778-.918 1.104a4.133 4.133 0 0 1-1.309.754 4.35 4.35 0 0 1-.21.064c-1.124.317-2.27.076-2.96-.736-1.013-1.195-.65-3.168.809-4.406 1.459-1.238 3.463-1.273 4.476-.078.165.193.294.408.387.638v-5.468l-1.078.398a2.59 2.59 0 0 1-1.498-.127l-2.352-.936a3.893 3.893 0 0 0-1.656-.275zm-.326 1.446c.055-.026.126.002.16.063l1.146 2.021c.035.061.02.132-.035.158-.055.026-.128-.001-.162-.062l-1.146-2.022c-.034-.06-.017-.132.037-.158zm-1.164.5c.03.005.06.02.082.047l1.703 2.008c.046.054.045.129 0 .168-.046.038-.121.026-.166-.027l-1.703-2.008c-.046-.054-.046-.127 0-.166a.106.106 0 0 1 .084-.022zm-.727 1.127c.03-.002.061.008.088.03l1.809 1.46c.055.043.07.12.035.17-.035.05-.108.054-.162.01l-1.809-1.46c-.054-.045-.068-.122-.033-.17a.093.093 0 0 1 .072-.04zm.74 8.324c.03.008.058.027.079.055.04.057.032.13-.018.162l-1.674 1.098c-.05.033-.124.014-.164-.043-.04-.057-.03-.131.02-.164l1.671-1.098a.108.108 0 0 1 .086-.01zm.637.71c.03 0 .06.014.086.039.05.049.06.122.02.167l-1.51 1.672c-.041.044-.114.042-.164-.008-.05-.049-.058-.125-.018-.17l1.508-1.67a.098.098 0 0 1 .078-.03zm.543.447a.12.12 0 0 1 .088.02c.058.036.083.111.055.165l-.948 1.803c-.028.054-.098.067-.156.03-.058-.038-.08-.113-.052-.167l.947-1.803a.092.092 0 0 1 .066-.048z" style="fill-opacity:.3;fill:#fff"/></g><g style="fill-opacity:.3;fill:#fff"><g style="fill-opacity:.3;fill:#fff"><path d="M1.057 16.139c-.27.007-.544.044-.817.113a3.57 3.57 0 0 0-.242.06v14.174c1.034.854 2.478 1.06 3.785.725 1.423-.31 2.706-1.252 3.174-2.643l.744-2.216c.151-.448.449-.855.856-1.174L9.9 24.38c1.048-.621 1.8-1.53 1.745-2.81-.048-1.11-.698-2.158-1.649-2.723-.616-.366-1.266-.419-1.926-.438-.599-.016-1.207-.004-1.804-.172-1.008-.282-1.97-.982-2.883-1.484-.725-.398-1.515-.638-2.326-.615zM.49 17.3a.098.098 0 0 1 .12.072l.447 1.893a.1.1 0 0 1-.075.119.098.098 0 0 1-.119-.073L.416 17.42a.1.1 0 0 1 .074-.12zm1.28.008a.098.098 0 0 1 .097.1l-.017 1.737a.099.099 0 1 1-.198-.001l.018-1.739c0-.055.045-.098.1-.097zM0 18.932l.277.539a.098.098 0 0 1-.043.133.1.1 0 0 1-.132-.043L0 19.365zm9.455.754a.112.112 0 0 1 .07.048.114.114 0 0 1-.035.157l-1.756 1.111a.112.112 0 0 1-.154-.035.113.113 0 0 1 .035-.156l1.754-1.112a.114.114 0 0 1 .086-.013zm.67.896a.114.114 0 0 1 .145.068.113.113 0 0 1-.069.145l-2.197.793a.113.113 0 1 1-.076-.213zm-8.008.11a4.699 4.699 0 0 1 .985.027c1.173.165 2.088.794 2.306 1.715.321 1.352-.99 2.822-2.926 3.28-.897.213-1.771.17-2.482-.07v-4.312a4.973 4.973 0 0 1 1.322-.518c.269-.063.534-.103.795-.123zm8.137 1.244a.111.111 0 0 1 .125.097.111.111 0 0 1-.098.125l-2.058.266a.112.112 0 0 1-.125-.098.112.112 0 0 1 .095-.127zm-6.43 5.435a.11.11 0 0 1 .065.057l.906 1.869a.113.113 0 0 1-.203.098l-.906-1.87a.11.11 0 0 1 .052-.148.113.113 0 0 1 .086-.006zm-.89.246a.112.112 0 0 1 .134.084l.54 2.274a.112.112 0 0 1-.085.134.114.114 0 0 1-.136-.084l-.537-2.271a.113.113 0 0 1 .084-.137zm-.829.147a.11.11 0 0 1 .114.109l.029 2.078a.112.112 0 0 1-.225.002l-.029-2.076a.111.111 0 0 1 .111-.113z" style="fill-opacity:.3;fill:#fff"/></g><g style="fill-opacity:.3;fill:#fff"><path d="M1.578 92.516a3.963 3.963 0 0 0-1.224.255l-.354.13v10.497a.09.09 0 0 1 .02.02l1.417 1.67c.04.046.04.112-.001.146-.04.033-.103.024-.143-.023L0 103.688v1.294l.34.63c.029.053.012.113-.037.134-.048.022-.112-.004-.14-.057l-.163-.3v1.59c.834-.031 1.608-.279 2.223-.82.704-.574 1.25-1.56 1.328-2.54.087-1.09-.225-2.286.045-3.332.375-1.46 1.722-2.287 1.666-3.951-.04-1.152-.652-2.37-1.621-3.125-.673-.525-1.373-.72-2.063-.695zm1.012 1.457c.03.001.06.014.086.039.05.049.056.126.015.17l-1.353 1.47c-.04.044-.114.042-.164-.007-.05-.05-.059-.126-.018-.17l1.356-1.471a.098.098 0 0 1 .078-.031zm1.16 1.029c.03.008.058.028.078.057.04.058.03.13-.02.162l-1.894 1.216c-.05.034-.122.014-.162-.044-.04-.058-.032-.13.018-.163l1.894-1.216a.105.105 0 0 1 .086-.012zm.322 1.209c.058-.02.129.017.157.08.028.063.003.13-.055.148l-1.934.641c-.058.02-.126-.016-.154-.08-.028-.063-.005-.13.053-.148zM.48 102.838a.117.117 0 0 1 .079.025l1.537 1.19c.048.037.062.102.033.146-.03.044-.093.05-.14.014l-1.538-1.19c-.048-.038-.063-.103-.033-.146a.084.084 0 0 1 .062-.04z" style="fill-opacity:.3;fill:#fff"/><path class="st0" d="M0 100.425v-2.056c.254.625.246 1.355 0 2.056z" style="fill-opacity:.3;fill:#fff"/></g></g><g style="fill-opacity:.3;fill:#fff"><path d="M45.988 56.545c-1.068.089-2.085.718-2.603 1.662-.575 1.048-.345 2.123.228 3.107l.77 1.323c.196.467.257.956.172 1.412l-.416 2.25c-.262 1.414.387 2.831 1.457 3.773 1.035.981 2.504 1.5 3.888 1.112l2.203-.62c.447-.125.94-.108 1.422.045l1.385.649c1.081.505 2.23.611 3.236-.139.871-.65 1.363-1.753 1.295-2.834-.044-.7-.36-1.257-.709-1.8-.317-.495-.662-.98-.855-1.555-.327-.972-.29-2.137-.387-3.153-.103-1.075-.498-2.089-1.326-2.82-.672-.635-1.698-1.105-2.627-1.133-1.036-.032-2.09.316-3.119.11-1.436-.288-2.47-1.517-4.014-1.39zm.242.963a.11.11 0 0 1 .067.053l.97 1.787a.108.108 0 0 1-.042.148.111.111 0 0 1-.15-.043l-.973-1.785a.111.111 0 0 1 .044-.15.111.111 0 0 1 .084-.01zm-1.078.412a.11.11 0 0 1 .077.037l1.503 1.725a.11.11 0 0 1-.01.156.111.111 0 0 1-.156-.012l-1.504-1.722a.11.11 0 0 1 .09-.184zm-.76 1.113a.112.112 0 0 1 .083.022l1.636 1.205a.11.11 0 0 1-.13.177l-1.637-1.207a.11.11 0 0 1-.024-.154.109.109 0 0 1 .073-.043zm9.47.092a.1.1 0 0 1 .074.008.098.098 0 0 1 .039.133l-.813 1.496a.096.096 0 0 1-.13.039.098.098 0 0 1-.04-.133l.813-1.496a.095.095 0 0 1 .056-.047zm1.105.586a.094.094 0 0 1 .068.025.097.097 0 0 1 .008.137l-1.285 1.406a.097.097 0 0 1-.137.006.097.097 0 0 1-.006-.137l1.283-1.406a.1.1 0 0 1 .069-.031zm.707 1.025a.097.097 0 0 1 .035.176l-1.416.943a.097.097 0 0 1-.135-.027.095.095 0 0 1 .028-.133l1.416-.943a.095.095 0 0 1 .072-.016zm-5.654.436c.391.013.806.103 1.22.271.486.198.97.5 1.41.903.46.42.816.898 1.057 1.388.515 1.04.512 2.13-.113 2.813-.92 1.005-2.83.753-4.27-.56-1.439-1.316-1.86-3.197-.941-4.202.399-.436.984-.634 1.637-.613zm-2.631 5.594c.028.005.054.02.072.045.035.05.023.119-.027.154l-1.666 1.168a.111.111 0 0 1-.127-.182l1.666-1.168a.109.109 0 0 1 .082-.017zm.566.605a.107.107 0 0 1 .078.03.11.11 0 0 1 .008.156l-1.543 1.687a.11.11 0 0 1-.156.008.11.11 0 0 1-.006-.156l1.543-1.69a.11.11 0 0 1 .076-.035zm8.084.067a.11.11 0 0 1 .084 0l1.867.806c.055.024.08.09.057.147a.11.11 0 0 1-.145.056l-1.867-.806a.112.112 0 0 1-.056-.147.107.107 0 0 1 .06-.056zm-7.45.47a.112.112 0 0 1 .126.162L47.7 69.832a.11.11 0 0 1-.191-.11l1.011-1.761a.115.115 0 0 1 .069-.053zm7.167.072a.11.11 0 0 1 .082.022l1.851 1.342c.05.036.062.103.026.152a.11.11 0 0 1-.154.025l-1.854-1.341a.111.111 0 0 1 .049-.2zm-.514.655a.109.109 0 0 1 .076.037l1.35 1.521a.11.11 0 0 1-.01.157.11.11 0 0 1-.156-.01l-1.35-1.522a.112.112 0 0 1 .01-.156.11.11 0 0 1 .08-.027z" style="fill-opacity:.3;fill:#fff"/></g></g></svg>
